<svg xmlns="http://www.w3.org/2000/svg" version="1.1" xmlns:xlink="http://www.w3.org/1999/xlink" xmlns:svgjs="http://svgjs.dev/svgjs" width="128" height="128" viewBox="0 0 128 128"><g transform="matrix(0.8046875,0,0,0.8046875,12.760752631578946,14.405816275738282)"><svg viewBox="0 0 95 92" data-background-color="#ffffff" preserveAspectRatio="xMidYMid meet" height="123" width="128" xmlns="http://www.w3.org/2000/svg" xmlns:xlink="http://www.w3.org/1999/xlink"><g id="tight-bounds" transform="matrix(1,0,0,1,-0.24049999999999727,0.09843772491167613)"><svg viewBox="0 0 95.481 91.80312455017665" height="91.80312455017665" width="95.481"><g><svg viewBox="0 0 95.481 91.80312455017665" height="91.80312455017665" width="95.481"><g><svg viewBox="0 0 95.481 91.80312455017665" height="91.80312455017665" width="95.481"><g id="textblocktransform"><svg viewBox="0 0 95.481 91.80312455017665" height="91.80312455017665" width="95.481" id="textblock"><g><svg viewBox="0 0 95.481 91.80312455017665" height="91.80312455017665" width="95.481"><g><svg viewBox="0 0 95.481 91.80312455017665" height="91.80312455017665" width="95.481"><g><svg xmlns="http://www.w3.org/2000/svg" xmlns:xlink="http://www.w3.org/1999/xlink" version="1.1" x="0" y="0" viewBox="2 2.0041669022046356 60 57.68883309779537" style="enable-background:new 0 0 64 64;" xml:space="preserve" height="91.80312455017665" width="95.481" class="icon-icon-0" data-fill-palette-color="accent" id="icon-0"><path d="M60.835 41.195c-0.738-0.623-1.713-0.884-2.663-0.719L39 43.811v-6.844c1.478-0.09 4.199-0.517 6.076-2.393 2.63-2.628 2.424-6.944 2.413-7.126-0.027-0.51-0.434-0.916-0.943-0.943-0.181-0.016-4.499-0.216-7.126 2.412-0.15 0.15-0.288 0.307-0.42 0.466v-3.409c1.478-0.09 4.199-0.517 6.076-2.393 2.63-2.628 2.424-6.944 2.413-7.126-0.027-0.51-0.434-0.916-0.943-0.943-0.181-0.014-4.499-0.216-7.126 2.413-0.15 0.15-0.288 0.307-0.42 0.466v-2.97l5.612-5.496C45.507 9.049 46 7.881 46 6.639c0-1.243-0.493-2.411-1.388-3.287 0-0.001-0.001-0.001-0.001-0.001C42.791 1.569 39.838 1.556 38 3.31c-1.839-1.755-4.791-1.741-6.612 0.042C30.493 4.228 30 5.396 30 6.639c0 1.242 0.493 2.41 1.389 3.287L37 15.42v2.97c-0.132-0.16-0.27-0.316-0.42-0.466-2.627-2.63-6.945-2.427-7.126-2.413-0.51 0.027-0.916 0.434-0.943 0.943-0.011 0.182-0.217 4.498 2.413 7.126 1.877 1.878 4.598 2.304 6.076 2.393v3.409c-0.132-0.16-0.27-0.317-0.42-0.466-2.628-2.628-6.943-2.427-7.126-2.412-0.51 0.027-0.916 0.434-0.943 0.943-0.011 0.182-0.217 4.498 2.413 7.126 1.877 1.878 4.598 2.304 6.076 2.393v5.619l-4.293-4.293C32.52 38.105 32.266 38 32 38H22c0-0.553-0.447-1-1-1h-4H2v2h14v14H2v2h15 4c0.553 0 1-0.447 1-1h2.764l10.691 5.346c0.462 0.231 0.963 0.347 1.462 0.347 0.569 0 1.137-0.149 1.646-0.446L60.379 46.52c1-0.583 1.621-1.664 1.621-2.822C62 42.73 61.575 41.818 60.835 41.195zM40.834 30.33c1.348-1.348 3.424-1.71 4.635-1.803-0.091 1.208-0.451 3.276-1.807 4.632-1.348 1.348-3.424 1.71-4.634 1.803C39.119 33.754 39.479 31.686 40.834 30.33zM40.834 19.338c1.348-1.349 3.424-1.711 4.635-1.804-0.091 1.208-0.451 3.276-1.807 4.632-1.347 1.347-3.42 1.709-4.631 1.803C39.125 22.758 39.487 20.685 40.834 19.338zM32.338 22.166c-1.349-1.348-1.711-3.424-1.804-4.635 1.208 0.091 3.276 0.451 4.632 1.807 1.347 1.347 1.709 3.42 1.803 4.631C35.758 23.875 33.685 23.513 32.338 22.166zM32.338 33.159c-1.349-1.348-1.711-3.425-1.804-4.635 1.208 0.091 3.276 0.45 4.632 1.806 1.347 1.348 1.709 3.421 1.803 4.632C35.758 34.868 33.685 34.506 32.338 33.159zM20 53h-2V39h2V53zM32 6.639c0-0.701 0.28-1.361 0.787-1.858 0.532-0.521 1.23-0.781 1.929-0.781 0.697 0 1.396 0.261 1.928 0.781l0.657 0.644c0.389 0.381 1.01 0.381 1.398 0l0.657-0.644c1.063-1.04 2.792-1.04 3.855-0.001C43.72 5.277 44 5.938 44 6.639c0 0.7-0.28 1.36-0.787 1.857L38 13.601l-5.212-5.104C32.28 7.999 32 7.339 32 6.639zM59.371 44.792L37.556 57.519c-0.37 0.217-0.821 0.23-1.206 0.038l-10.902-5.451C25.309 52.036 25.155 52 25 52h-3V40h9.586l7.879 7.879C39.805 48.219 40 48.69 40 49.172 40 50.18 39.18 51 38.172 51c-0.481 0-0.953-0.195-1.293-0.535l-5.172-5.172-1.414 1.414 5.172 5.172C36.188 52.602 37.149 53 38.172 53 40.282 53 42 51.282 42 49.172c0-1.022-0.398-1.984-1.121-2.707l-0.81-0.81 18.444-3.208c0.372-0.067 0.747 0.037 1.034 0.279C59.835 42.968 60 43.322 60 43.697 60 44.146 59.759 44.566 59.371 44.792z" fill="#000000" data-fill-palette-color="accent"></path><path d="M21 13h2c0-1.654 1.346-3 3-3V8c-1.654 0-3-1.346-3-3h-2c0 1.654-1.346 3-3 3v2C19.654 10 21 11.346 21 13zM22 7.969C22.292 8.362 22.638 8.708 23.031 9 22.638 9.292 22.292 9.638 22 10.031 21.708 9.638 21.362 9.292 20.969 9 21.362 8.708 21.708 8.362 22 7.969z" fill="#000000" data-fill-palette-color="accent"></path><path d="M15 22h2c0-1.654 1.346-3 3-3v-2c-1.654 0-3-1.346-3-3h-2c0 1.654-1.346 3-3 3v2C13.654 19 15 20.346 15 22zM16 16.969c0.292 0.393 0.638 0.739 1.031 1.031-0.393 0.292-0.739 0.638-1.031 1.031-0.292-0.393-0.638-0.739-1.031-1.031C15.362 17.708 15.708 17.362 16 16.969z" fill="#000000" data-fill-palette-color="accent"></path><path d="M53 17h2c0-1.654 1.346-3 3-3v-2c-1.654 0-3-1.346-3-3h-2c0 1.654-1.346 3-3 3v2C51.654 14 53 15.346 53 17zM54 11.969c0.292 0.393 0.638 0.739 1.031 1.031-0.393 0.292-0.739 0.638-1.031 1.031-0.292-0.393-0.638-0.739-1.031-1.031C53.362 12.708 53.708 12.362 54 11.969z" fill="#000000" data-fill-palette-color="accent"></path><rect x="20" y="33" width="2" height="2" fill="#000000" data-fill-palette-color="accent"></rect><rect x="16" y="33" width="2" height="2" fill="#000000" data-fill-palette-color="accent"></rect><rect x="12" y="33" width="2" height="2" fill="#000000" data-fill-palette-color="accent"></rect></svg></g></svg></g></svg></g></svg></g></svg></g></svg></g><defs></defs></svg><rect width="95.481" height="91.80312455017665" fill="none" stroke="none" visibility="hidden"></rect></g></svg></g></svg>