<svg xmlns="http://www.w3.org/2000/svg" version="1.1" xmlns:xlink="http://www.w3.org/1999/xlink" xmlns:svgjs="http://svgjs.dev/svgjs" width="2000" height="489" viewBox="0 0 2000 489"><g transform="matrix(1,0,0,1,-1.2121212121213603,0.47270384588745173)"><svg viewBox="0 0 396 97" data-background-color="#ffffff" preserveAspectRatio="xMidYMid meet" height="489" width="2000" xmlns="http://www.w3.org/2000/svg" xmlns:xlink="http://www.w3.org/1999/xlink"><g id="tight-bounds" transform="matrix(1,0,0,1,0.24000000000003752,-0.0937674295523152)"><svg viewBox="0 0 395.5199999999999 97.18753515850844" height="97.18753515850844" width="395.5199999999999"><g><svg viewBox="0 0 579.2641629559139 142.33731847527773" height="97.18753515850844" width="395.5199999999999"><g><rect width="5.725901134694767" height="138.01158231322148" x="163.02899183510723" y="2.1628680810281224" fill="#000000" opacity="1" stroke-width="0" stroke="transparent" fill-opacity="1" class="rect-o-0" data-fill-palette-color="primary" rx="1%" id="o-0" data-palette-color="#ec9131"></rect></g><g transform="matrix(1,0,0,1,183.74416295591396,2.506180474842097)"><svg viewBox="0 0 395.52 137.32495752559353" height="137.32495752559353" width="395.52"><g id="textblocktransform"><svg viewBox="0 0 395.52 137.32495752559353" height="137.32495752559353" width="395.52" id="textblock"><g><svg viewBox="0 0 395.52 137.32495752559353" height="137.32495752559353" width="395.52"><g transform="matrix(1,0,0,1,0,0)"><svg width="395.52" viewBox="0.6500005722045898 -36.54999923706055 229.55001831054688 76.70000457763672" height="137.32495752559353" data-palette-color="#ec9131"><svg></svg><svg></svg><g class="undefined-text-0" data-fill-palette-color="primary" id="text-0"><path xmlns="http://www.w3.org/2000/svg" d="M5.45 0v0c-0.433 0-0.817-0.1-1.15-0.3-0.333-0.2-0.5-0.517-0.5-0.95v0-34.05c0-0.4 0.16-0.71 0.48-0.93 0.313-0.213 0.653-0.32 1.02-0.32v0h17.7c0.433 0 0.75 0.157 0.95 0.47 0.2 0.32 0.3 0.647 0.3 0.98v0c0 0.433-0.107 0.807-0.32 1.12-0.22 0.32-0.53 0.48-0.93 0.48v0h-15.9v13.75h7.9c0.367 0 0.66 0.15 0.88 0.45 0.213 0.3 0.32 0.65 0.32 1.05v0c0 0.3-0.09 0.6-0.27 0.9-0.187 0.3-0.497 0.45-0.93 0.45v0h-7.9v15.65c0 0.433-0.173 0.75-0.52 0.95-0.353 0.2-0.73 0.3-1.13 0.3zM47.9 0h-17.8c-0.367 0-0.707-0.11-1.02-0.33-0.32-0.213-0.48-0.537-0.48-0.97v0-34c0-0.4 0.16-0.71 0.48-0.93 0.313-0.213 0.653-0.32 1.02-0.32v0h17.8c0.433 0 0.75 0.157 0.95 0.47 0.2 0.32 0.3 0.647 0.3 0.98v0c0 0.433-0.107 0.807-0.32 1.12-0.22 0.32-0.53 0.48-0.93 0.48v0h-16v13.75h7.85c0.4 0 0.707 0.15 0.92 0.45 0.22 0.3 0.33 0.65 0.33 1.05v0c0 0.3-0.1 0.6-0.3 0.9-0.2 0.3-0.517 0.45-0.95 0.45v0h-7.85v13.85h16c0.4 0 0.71 0.15 0.93 0.45 0.213 0.3 0.32 0.667 0.32 1.1v0c0 0.367-0.1 0.707-0.3 1.02-0.2 0.32-0.517 0.48-0.95 0.48zM73.3 0h-17.8c-0.367 0-0.707-0.11-1.02-0.33-0.32-0.213-0.48-0.537-0.48-0.97v0-34c0-0.4 0.16-0.71 0.48-0.93 0.313-0.213 0.653-0.32 1.02-0.32v0h17.8c0.433 0 0.75 0.157 0.95 0.47 0.2 0.32 0.3 0.647 0.3 0.98v0c0 0.433-0.107 0.807-0.32 1.12-0.22 0.32-0.53 0.48-0.93 0.48v0h-16v13.75h7.85c0.4 0 0.71 0.15 0.93 0.45 0.213 0.3 0.32 0.65 0.32 1.05v0c0 0.3-0.1 0.6-0.3 0.9-0.2 0.3-0.517 0.45-0.95 0.45v0h-7.85v13.85h16c0.4 0 0.71 0.15 0.93 0.45 0.213 0.3 0.32 0.667 0.32 1.1v0c0 0.367-0.1 0.707-0.3 1.02-0.2 0.32-0.517 0.48-0.95 0.48zM89.75 0h-8.85c-0.433 0-0.79-0.117-1.07-0.35-0.287-0.233-0.43-0.533-0.43-0.9v0-34.1c0-0.333 0.143-0.617 0.43-0.85 0.28-0.233 0.637-0.35 1.07-0.35v0h8.85c1.967 0 3.743 0.35 5.33 1.05 1.58 0.7 2.83 1.833 3.75 3.4 0.913 1.567 1.37 3.633 1.37 6.2v0 15.2c0 2.6-0.457 4.683-1.37 6.25-0.92 1.567-2.17 2.7-3.75 3.4-1.587 0.7-3.363 1.05-5.33 1.05zM82.7-33.5v30.45h7.05c2.233 0 3.983-0.617 5.25-1.85 1.267-1.233 1.9-3.167 1.9-5.8v0-15.2c0-2.6-0.633-4.517-1.9-5.75-1.267-1.233-3.017-1.85-5.25-1.85v0zM109.05 0v0c-0.433 0-0.817-0.11-1.15-0.33-0.333-0.213-0.5-0.537-0.5-0.97v0-34.05c0-0.4 0.167-0.7 0.5-0.9 0.333-0.2 0.717-0.3 1.15-0.3v0c0.4 0 0.777 0.1 1.13 0.3 0.347 0.2 0.52 0.5 0.52 0.9v0 34.05c0 0.433-0.173 0.757-0.52 0.97-0.353 0.22-0.73 0.33-1.13 0.33zM119.95 0v0c-0.433 0-0.817-0.11-1.15-0.33-0.333-0.213-0.5-0.537-0.5-0.97v0-34c0-0.467 0.167-0.79 0.5-0.97 0.333-0.187 0.717-0.28 1.15-0.28v0c0.4 0 0.75 0.107 1.05 0.32 0.3 0.22 0.583 0.497 0.85 0.83 0.267 0.333 0.5 0.717 0.7 1.15v0l13.5 26.6v-27.7c0-0.433 0.167-0.74 0.5-0.92 0.333-0.187 0.717-0.28 1.15-0.28v0c0.4 0 0.777 0.093 1.13 0.28 0.347 0.18 0.52 0.487 0.52 0.92v0 34.05c0 0.433-0.173 0.757-0.52 0.97-0.353 0.22-0.73 0.33-1.13 0.33v0c-0.467 0-0.883-0.2-1.25-0.6-0.367-0.4-0.683-0.833-0.95-1.3v0l-13.9-27.05v27.65c0 0.433-0.173 0.757-0.52 0.97-0.353 0.22-0.73 0.33-1.13 0.33zM156.95 0.3v0c-1.933 0-3.683-0.35-5.25-1.05-1.567-0.7-2.81-1.833-3.73-3.4-0.913-1.567-1.37-3.65-1.37-6.25v0-15.5c0-2.567 0.457-4.633 1.37-6.2 0.92-1.567 2.157-2.7 3.71-3.4 1.547-0.7 3.287-1.05 5.22-1.05v0c2.133 0 3.983 0.373 5.55 1.12 1.567 0.753 2.783 1.78 3.65 3.08 0.867 1.3 1.3 2.783 1.3 4.45v0c0 0.633-0.15 1.073-0.45 1.32-0.3 0.253-0.7 0.38-1.2 0.38v0c-0.433 0-0.807-0.1-1.12-0.3-0.32-0.2-0.497-0.517-0.53-0.95v0c-0.167-1.3-0.533-2.4-1.1-3.3-0.567-0.9-1.35-1.583-2.35-2.05-1-0.467-2.233-0.7-3.7-0.7v0c-2.233 0-3.967 0.617-5.2 1.85-1.233 1.233-1.85 3.15-1.85 5.75v0 15.5c0 2.6 0.617 4.523 1.85 5.77 1.233 1.253 2.967 1.88 5.2 1.88v0c2.233 0 3.983-0.627 5.25-1.88 1.267-1.247 1.9-3.17 1.9-5.77v0-5.95h-6.7c-0.4 0-0.71-0.15-0.93-0.45-0.213-0.3-0.32-0.633-0.32-1v0c0-0.333 0.107-0.65 0.32-0.95 0.22-0.3 0.53-0.45 0.93-0.45v0h8.75c0.4 0 0.71 0.127 0.93 0.38 0.213 0.247 0.32 0.553 0.32 0.92v0 7.5c0 2.6-0.467 4.683-1.4 6.25-0.933 1.567-2.183 2.7-3.75 3.4-1.567 0.7-3.333 1.05-5.3 1.05z" fill="#000000" fill-rule="nonzero" stroke="none" stroke-width="1" stroke-linecap="butt" stroke-linejoin="miter" stroke-miterlimit="10" stroke-dasharray="" stroke-dashoffset="0" font-family="none" font-weight="none" font-size="none" text-anchor="none" style="mix-blend-mode: normal" data-fill-palette-color="primary" opacity="1"></path><path xmlns="http://www.w3.org/2000/svg" d="M11.95 39.85v0c-0.433 0-0.817-0.11-1.15-0.33-0.333-0.213-0.5-0.537-0.5-0.97v0-32.15h-8.4c-0.4 0-0.707-0.16-0.92-0.48-0.22-0.313-0.33-0.67-0.33-1.07v0c0-0.4 0.11-0.76 0.33-1.08 0.213-0.313 0.52-0.47 0.92-0.47v0h20.05c0.433 0 0.75 0.15 0.95 0.45 0.2 0.3 0.3 0.65 0.3 1.05v0c0 0.4-0.1 0.767-0.3 1.1-0.2 0.333-0.517 0.5-0.95 0.5v0h-8.35v32.15c0 0.433-0.173 0.757-0.52 0.97-0.353 0.22-0.73 0.33-1.13 0.33zM36.65 40.15v0c-1.933 0-3.683-0.35-5.25-1.05-1.567-0.7-2.807-1.833-3.72-3.4-0.92-1.567-1.38-3.65-1.38-6.25v0-15.5c0-2.567 0.46-4.633 1.38-6.2 0.913-1.567 2.147-2.7 3.7-3.4 1.547-0.7 3.303-1.05 5.27-1.05v0c1.967 0 3.733 0.35 5.3 1.05 1.567 0.7 2.817 1.833 3.75 3.4 0.933 1.567 1.4 3.633 1.4 6.2v0 15.5c0 2.6-0.467 4.683-1.4 6.25-0.933 1.567-2.183 2.7-3.75 3.4-1.567 0.7-3.333 1.05-5.3 1.05zM36.65 37.1v0c2.233 0 3.983-0.617 5.25-1.85 1.267-1.233 1.9-3.167 1.9-5.8v0-15.5c0-2.6-0.633-4.517-1.9-5.75-1.267-1.233-3.017-1.85-5.25-1.85v0c-2.233 0-3.967 0.617-5.2 1.85-1.233 1.233-1.85 3.15-1.85 5.75v0 15.5c0 2.633 0.617 4.567 1.85 5.8 1.233 1.233 2.967 1.85 5.2 1.85zM55.95 39.85v0c-0.433 0-0.817-0.11-1.15-0.33-0.333-0.213-0.5-0.537-0.5-0.97v0-33.65c0-0.6 0.167-1.017 0.5-1.25 0.333-0.233 0.717-0.35 1.15-0.35v0c0.4 0 0.757 0.107 1.07 0.32 0.32 0.22 0.613 0.503 0.88 0.85 0.267 0.353 0.5 0.73 0.7 1.13v0l8.6 16.6 8.6-16.6c0.233-0.4 0.477-0.777 0.73-1.13 0.247-0.347 0.537-0.63 0.87-0.85 0.333-0.213 0.683-0.32 1.05-0.32v0c0.467 0 0.86 0.117 1.18 0.35 0.313 0.233 0.47 0.65 0.47 1.25v0 33.65c0 0.433-0.167 0.757-0.5 0.97-0.333 0.22-0.717 0.33-1.15 0.33v0c-0.4 0-0.773-0.11-1.12-0.33-0.353-0.213-0.53-0.537-0.53-0.97v0-28.1l-8.3 15.7c-0.2 0.367-0.417 0.633-0.65 0.8-0.233 0.167-0.467 0.25-0.7 0.25v0c-0.2 0-0.417-0.077-0.65-0.23-0.233-0.147-0.45-0.42-0.65-0.82v0l-8.25-15.85v28.25c0 0.433-0.173 0.757-0.52 0.97-0.353 0.22-0.73 0.33-1.13 0.33zM97.7 40.15v0c-1.933 0-3.683-0.35-5.25-1.05-1.567-0.7-2.807-1.833-3.72-3.4-0.92-1.567-1.38-3.65-1.38-6.25v0-15.5c0-2.567 0.46-4.633 1.38-6.2 0.913-1.567 2.147-2.7 3.7-3.4 1.547-0.7 3.303-1.05 5.27-1.05v0c1.967 0 3.733 0.35 5.3 1.05 1.567 0.7 2.817 1.833 3.75 3.4 0.933 1.567 1.4 3.633 1.4 6.2v0 15.5c0 2.6-0.467 4.683-1.4 6.25-0.933 1.567-2.183 2.7-3.75 3.4-1.567 0.7-3.333 1.05-5.3 1.05zM97.7 37.1v0c2.233 0 3.983-0.617 5.25-1.85 1.267-1.233 1.9-3.167 1.9-5.8v0-15.5c0-2.6-0.633-4.517-1.9-5.75-1.267-1.233-3.017-1.85-5.25-1.85v0c-2.233 0-3.967 0.617-5.2 1.85-1.233 1.233-1.85 3.15-1.85 5.75v0 15.5c0 2.633 0.617 4.567 1.85 5.8 1.233 1.233 2.967 1.85 5.2 1.85zM134.45 39.9v0c-0.367 0-0.7-0.183-1-0.55-0.3-0.367-0.533-0.75-0.7-1.15v0l-7.75-15h-6.35v15.35c0 0.433-0.173 0.757-0.52 0.97-0.353 0.22-0.73 0.33-1.13 0.33v0c-0.433 0-0.817-0.11-1.15-0.33-0.333-0.213-0.5-0.537-0.5-0.97v0-34.05c0-0.333 0.117-0.61 0.35-0.83 0.233-0.213 0.533-0.337 0.9-0.37v0h8.85c1.967 0 3.767 0.3 5.4 0.9 1.633 0.6 2.943 1.607 3.93 3.02 0.98 1.42 1.47 3.397 1.47 5.93v0c0 2.067-0.34 3.767-1.02 5.1-0.687 1.333-1.62 2.357-2.8 3.07-1.187 0.72-2.513 1.213-3.98 1.48v0l7.7 14.8c0.1 0.1 0.16 0.207 0.18 0.32 0.013 0.12 0.02 0.23 0.02 0.33v0c0 0.267-0.09 0.533-0.27 0.8-0.187 0.267-0.43 0.473-0.73 0.62-0.3 0.153-0.6 0.23-0.9 0.23zM118.65 6.35v14h6.8c2.233 0 4.043-0.543 5.43-1.63 1.38-1.08 2.07-2.887 2.07-5.42v0c0-2.5-0.69-4.283-2.07-5.35-1.387-1.067-3.197-1.6-5.43-1.6v0zM160.85 39.9v0c-0.367 0-0.7-0.183-1-0.55-0.3-0.367-0.533-0.75-0.7-1.15v0l-7.75-15h-6.35v15.35c0 0.433-0.173 0.757-0.52 0.97-0.353 0.22-0.73 0.33-1.13 0.33v0c-0.433 0-0.817-0.11-1.15-0.33-0.333-0.213-0.5-0.537-0.5-0.97v0-34.05c0-0.333 0.117-0.61 0.35-0.83 0.233-0.213 0.533-0.337 0.9-0.37v0h8.85c1.967 0 3.767 0.3 5.4 0.9 1.633 0.6 2.943 1.607 3.93 3.02 0.98 1.42 1.47 3.397 1.47 5.93v0c0 2.067-0.34 3.767-1.02 5.1-0.687 1.333-1.62 2.357-2.8 3.07-1.187 0.72-2.513 1.213-3.98 1.48v0l7.7 14.8c0.1 0.1 0.16 0.207 0.18 0.32 0.013 0.12 0.02 0.23 0.02 0.33v0c0 0.267-0.09 0.533-0.27 0.8-0.187 0.267-0.43 0.473-0.73 0.62-0.3 0.153-0.6 0.23-0.9 0.23zM145.05 6.35v14h6.8c2.233 0 4.043-0.543 5.43-1.63 1.38-1.08 2.07-2.887 2.07-5.42v0c0-2.5-0.69-4.283-2.07-5.35-1.387-1.067-3.197-1.6-5.43-1.6v0zM178.15 40.15v0c-1.933 0-3.683-0.35-5.25-1.05-1.567-0.7-2.807-1.833-3.72-3.4-0.92-1.567-1.38-3.65-1.38-6.25v0-15.5c0-2.567 0.46-4.633 1.38-6.2 0.913-1.567 2.147-2.7 3.7-3.4 1.547-0.7 3.303-1.05 5.27-1.05v0c1.967 0 3.733 0.35 5.3 1.05 1.567 0.7 2.817 1.833 3.75 3.4 0.933 1.567 1.4 3.633 1.4 6.2v0 15.5c0 2.6-0.467 4.683-1.4 6.25-0.933 1.567-2.183 2.7-3.75 3.4-1.567 0.7-3.333 1.05-5.3 1.05zM178.15 37.1v0c2.233 0 3.983-0.617 5.25-1.85 1.267-1.233 1.9-3.167 1.9-5.8v0-15.5c0-2.6-0.633-4.517-1.9-5.75-1.267-1.233-3.017-1.85-5.25-1.85v0c-2.233 0-3.967 0.617-5.2 1.85-1.233 1.233-1.85 3.15-1.85 5.75v0 15.5c0 2.633 0.617 4.567 1.85 5.8 1.233 1.233 2.967 1.85 5.2 1.85zM204.9 40.15v0c-0.433 0-0.833-0.1-1.2-0.3-0.367-0.2-0.617-0.5-0.75-0.9v0l-9.85-33.9c-0.067-0.133-0.1-0.267-0.1-0.4v0c0-0.267 0.1-0.51 0.3-0.73 0.2-0.213 0.45-0.37 0.75-0.47 0.3-0.1 0.583-0.15 0.85-0.15v0c0.3 0 0.583 0.067 0.85 0.2 0.267 0.133 0.433 0.35 0.5 0.65v0l8.65 30.7 4.95-18.65c0.133-0.433 0.367-0.733 0.7-0.9 0.333-0.167 0.7-0.25 1.1-0.25v0c0.4 0 0.75 0.083 1.05 0.25 0.3 0.167 0.5 0.467 0.6 0.9v0l5.05 18.65 8.6-30.7c0.1-0.3 0.277-0.517 0.53-0.65 0.247-0.133 0.52-0.2 0.82-0.2v0c0.333 0 0.633 0.05 0.9 0.15 0.267 0.1 0.5 0.257 0.7 0.47 0.2 0.22 0.3 0.463 0.3 0.73v0c0 0.133-0.017 0.267-0.05 0.4v0l-9.8 33.9c-0.133 0.4-0.383 0.7-0.75 0.9-0.367 0.2-0.783 0.3-1.25 0.3v0c-0.433 0-0.84-0.1-1.22-0.3-0.387-0.2-0.63-0.5-0.73-0.9v0l-4.75-17.65-4.75 17.65c-0.1 0.4-0.34 0.7-0.72 0.9-0.387 0.2-0.813 0.3-1.28 0.3z" fill="#000000" fill-rule="nonzero" stroke="none" stroke-width="1" stroke-linecap="butt" stroke-linejoin="miter" stroke-miterlimit="10" stroke-dasharray="" stroke-dashoffset="0" font-family="none" font-weight="none" font-size="none" text-anchor="none" style="mix-blend-mode: normal" data-fill-palette-color="secondary" opacity="1"></path></g></svg></g></svg></g></svg></g></svg></g><g><svg viewBox="0 0 148.03972184899527 142.33731847527773" height="142.33731847527773" width="148.03972184899527"><g><svg xmlns="http://www.w3.org/2000/svg" xmlns:xlink="http://www.w3.org/1999/xlink" version="1.1" x="0" y="0" viewBox="2 2.004167079925537 60 57.68883514404297" style="enable-background:new 0 0 64 64;" xml:space="preserve" height="142.33731847527773" width="148.03972184899527" class="icon-icon-0" data-fill-palette-color="accent" id="icon-0"><path d="M60.835 41.195c-0.738-0.623-1.713-0.884-2.663-0.719L39 43.811v-6.844c1.478-0.09 4.199-0.517 6.076-2.393 2.63-2.628 2.424-6.944 2.413-7.126-0.027-0.51-0.434-0.916-0.943-0.943-0.181-0.016-4.499-0.216-7.126 2.412-0.15 0.15-0.288 0.307-0.42 0.466v-3.409c1.478-0.09 4.199-0.517 6.076-2.393 2.63-2.628 2.424-6.944 2.413-7.126-0.027-0.51-0.434-0.916-0.943-0.943-0.181-0.014-4.499-0.216-7.126 2.413-0.15 0.15-0.288 0.307-0.42 0.466v-2.97l5.612-5.496C45.507 9.049 46 7.881 46 6.639c0-1.243-0.493-2.411-1.388-3.287 0-0.001-0.001-0.001-0.001-0.001C42.791 1.569 39.838 1.556 38 3.31c-1.839-1.755-4.791-1.741-6.612 0.042C30.493 4.228 30 5.396 30 6.639c0 1.242 0.493 2.41 1.389 3.287L37 15.42v2.97c-0.132-0.16-0.27-0.316-0.42-0.466-2.627-2.63-6.945-2.427-7.126-2.413-0.51 0.027-0.916 0.434-0.943 0.943-0.011 0.182-0.217 4.498 2.413 7.126 1.877 1.878 4.598 2.304 6.076 2.393v3.409c-0.132-0.16-0.27-0.317-0.42-0.466-2.628-2.628-6.943-2.427-7.126-2.412-0.51 0.027-0.916 0.434-0.943 0.943-0.011 0.182-0.217 4.498 2.413 7.126 1.877 1.878 4.598 2.304 6.076 2.393v5.619l-4.293-4.293C32.52 38.105 32.266 38 32 38H22c0-0.553-0.447-1-1-1h-4H2v2h14v14H2v2h15 4c0.553 0 1-0.447 1-1h2.764l10.691 5.346c0.462 0.231 0.963 0.347 1.462 0.347 0.569 0 1.137-0.149 1.646-0.446L60.379 46.52c1-0.583 1.621-1.664 1.621-2.822C62 42.73 61.575 41.818 60.835 41.195zM40.834 30.33c1.348-1.348 3.424-1.71 4.635-1.803-0.091 1.208-0.451 3.276-1.807 4.632-1.348 1.348-3.424 1.71-4.634 1.803C39.119 33.754 39.479 31.686 40.834 30.33zM40.834 19.338c1.348-1.349 3.424-1.711 4.635-1.804-0.091 1.208-0.451 3.276-1.807 4.632-1.347 1.347-3.42 1.709-4.631 1.803C39.125 22.758 39.487 20.685 40.834 19.338zM32.338 22.166c-1.349-1.348-1.711-3.424-1.804-4.635 1.208 0.091 3.276 0.451 4.632 1.807 1.347 1.347 1.709 3.42 1.803 4.631C35.758 23.875 33.685 23.513 32.338 22.166zM32.338 33.159c-1.349-1.348-1.711-3.425-1.804-4.635 1.208 0.091 3.276 0.45 4.632 1.806 1.347 1.348 1.709 3.421 1.803 4.632C35.758 34.868 33.685 34.506 32.338 33.159zM20 53h-2V39h2V53zM32 6.639c0-0.701 0.28-1.361 0.787-1.858 0.532-0.521 1.23-0.781 1.929-0.781 0.697 0 1.396 0.261 1.928 0.781l0.657 0.644c0.389 0.381 1.01 0.381 1.398 0l0.657-0.644c1.063-1.04 2.792-1.04 3.855-0.001C43.72 5.277 44 5.938 44 6.639c0 0.7-0.28 1.36-0.787 1.857L38 13.601l-5.212-5.104C32.28 7.999 32 7.339 32 6.639zM59.371 44.792L37.556 57.519c-0.37 0.217-0.821 0.23-1.206 0.038l-10.902-5.451C25.309 52.036 25.155 52 25 52h-3V40h9.586l7.879 7.879C39.805 48.219 40 48.69 40 49.172 40 50.18 39.18 51 38.172 51c-0.481 0-0.953-0.195-1.293-0.535l-5.172-5.172-1.414 1.414 5.172 5.172C36.188 52.602 37.149 53 38.172 53 40.282 53 42 51.282 42 49.172c0-1.022-0.398-1.984-1.121-2.707l-0.81-0.81 18.444-3.208c0.372-0.067 0.747 0.037 1.034 0.279C59.835 42.968 60 43.322 60 43.697 60 44.146 59.759 44.566 59.371 44.792z" fill="#000000" data-fill-palette-color="accent"></path><path d="M21 13h2c0-1.654 1.346-3 3-3V8c-1.654 0-3-1.346-3-3h-2c0 1.654-1.346 3-3 3v2C19.654 10 21 11.346 21 13zM22 7.969C22.292 8.362 22.638 8.708 23.031 9 22.638 9.292 22.292 9.638 22 10.031 21.708 9.638 21.362 9.292 20.969 9 21.362 8.708 21.708 8.362 22 7.969z" fill="#000000" data-fill-palette-color="accent"></path><path d="M15 22h2c0-1.654 1.346-3 3-3v-2c-1.654 0-3-1.346-3-3h-2c0 1.654-1.346 3-3 3v2C13.654 19 15 20.346 15 22zM16 16.969c0.292 0.393 0.638 0.739 1.031 1.031-0.393 0.292-0.739 0.638-1.031 1.031-0.292-0.393-0.638-0.739-1.031-1.031C15.362 17.708 15.708 17.362 16 16.969z" fill="#000000" data-fill-palette-color="accent"></path><path d="M53 17h2c0-1.654 1.346-3 3-3v-2c-1.654 0-3-1.346-3-3h-2c0 1.654-1.346 3-3 3v2C51.654 14 53 15.346 53 17zM54 11.969c0.292 0.393 0.638 0.739 1.031 1.031-0.393 0.292-0.739 0.638-1.031 1.031-0.292-0.393-0.638-0.739-1.031-1.031C53.362 12.708 53.708 12.362 54 11.969z" fill="#000000" data-fill-palette-color="accent"></path><rect x="20" y="33" width="2" height="2" fill="#000000" data-fill-palette-color="accent"></rect><rect x="16" y="33" width="2" height="2" fill="#000000" data-fill-palette-color="accent"></rect><rect x="12" y="33" width="2" height="2" fill="#000000" data-fill-palette-color="accent"></rect></svg></g></svg></g></svg></g><defs></defs></svg><rect width="395.5199999999999" height="97.18753515850844" fill="none" stroke="none" visibility="hidden"></rect></g></svg></g></svg>